<mxfile host="app.diagrams.net" modified="2022-05-02T23:46:20.804Z" agent="5.0 (X11; Linux x86_64) AppleWebKit/537.36 (KHTML, like Gecko) Chrome/101.0.4951.41 Safari/537.36" etag="aWRp1MUKRZ5dMQmnn1OC" version="17.5.0" type="github">
  <diagram id="Hbq50zOjAaLF_SF_vBic" name="Page-1">
    <mxGraphModel dx="840" dy="448" grid="1" gridSize="10" guides="1" tooltips="1" connect="1" arrows="1" fold="1" page="1" pageScale="1" pageWidth="827" pageHeight="1169" math="0" shadow="0">
      <root>
        <mxCell id="0" />
        <mxCell id="1" parent="0" />
        <mxCell id="DSpsX9VBpkcXeJtLXAig-10" style="edgeStyle=orthogonalEdgeStyle;rounded=0;orthogonalLoop=1;jettySize=auto;html=1;entryX=0;entryY=0.5;entryDx=0;entryDy=0;endArrow=none;endFill=0;" parent="1" source="DSpsX9VBpkcXeJtLXAig-1" target="DSpsX9VBpkcXeJtLXAig-8" edge="1">
          <mxGeometry relative="1" as="geometry" />
        </mxCell>
        <mxCell id="DSpsX9VBpkcXeJtLXAig-11" style="edgeStyle=orthogonalEdgeStyle;rounded=0;orthogonalLoop=1;jettySize=auto;html=1;endArrow=none;endFill=0;entryX=0;entryY=0.5;entryDx=0;entryDy=0;" parent="1" target="DSpsX9VBpkcXeJtLXAig-4" edge="1">
          <mxGeometry relative="1" as="geometry">
            <mxPoint x="115" y="60.00000000000006" as="targetPoint" />
            <mxPoint x="115" y="100" as="sourcePoint" />
            <Array as="points">
              <mxPoint x="115" y="80" />
            </Array>
          </mxGeometry>
        </mxCell>
        <mxCell id="DSpsX9VBpkcXeJtLXAig-14" style="edgeStyle=orthogonalEdgeStyle;rounded=0;orthogonalLoop=1;jettySize=auto;html=1;entryX=0;entryY=0.5;entryDx=0;entryDy=0;endArrow=none;endFill=0;" parent="1" target="DSpsX9VBpkcXeJtLXAig-12" edge="1">
          <mxGeometry relative="1" as="geometry">
            <mxPoint x="90" y="130" as="sourcePoint" />
            <Array as="points">
              <mxPoint x="50" y="130" />
              <mxPoint x="50" y="370" />
            </Array>
          </mxGeometry>
        </mxCell>
        <mxCell id="DSpsX9VBpkcXeJtLXAig-1" value="Usuário/Cliente" style="shape=umlActor;verticalLabelPosition=bottom;verticalAlign=top;html=1;outlineConnect=0;" parent="1" vertex="1">
          <mxGeometry x="100" y="110" width="30" height="60" as="geometry" />
        </mxCell>
        <mxCell id="DSpsX9VBpkcXeJtLXAig-5" style="edgeStyle=orthogonalEdgeStyle;rounded=0;orthogonalLoop=1;jettySize=auto;html=1;entryX=1;entryY=0.5;entryDx=0;entryDy=0;endArrow=none;endFill=0;" parent="1" target="DSpsX9VBpkcXeJtLXAig-4" edge="1">
          <mxGeometry relative="1" as="geometry">
            <mxPoint x="440" y="116" as="sourcePoint" />
          </mxGeometry>
        </mxCell>
        <mxCell id="DSpsX9VBpkcXeJtLXAig-7" style="edgeStyle=orthogonalEdgeStyle;rounded=0;orthogonalLoop=1;jettySize=auto;html=1;endArrow=none;endFill=0;" parent="1" source="DSpsX9VBpkcXeJtLXAig-3" target="DSpsX9VBpkcXeJtLXAig-6" edge="1">
          <mxGeometry relative="1" as="geometry" />
        </mxCell>
        <mxCell id="DSpsX9VBpkcXeJtLXAig-9" style="edgeStyle=orthogonalEdgeStyle;rounded=0;orthogonalLoop=1;jettySize=auto;html=1;entryX=1;entryY=0.5;entryDx=0;entryDy=0;endArrow=none;endFill=0;" parent="1" source="DSpsX9VBpkcXeJtLXAig-3" target="DSpsX9VBpkcXeJtLXAig-8" edge="1">
          <mxGeometry relative="1" as="geometry">
            <mxPoint x="490" y="140" as="sourcePoint" />
            <Array as="points">
              <mxPoint x="530" y="140" />
              <mxPoint x="530" y="270" />
            </Array>
          </mxGeometry>
        </mxCell>
        <mxCell id="DSpsX9VBpkcXeJtLXAig-13" style="edgeStyle=orthogonalEdgeStyle;rounded=0;orthogonalLoop=1;jettySize=auto;html=1;entryX=1;entryY=0.625;entryDx=0;entryDy=0;entryPerimeter=0;endArrow=none;endFill=0;" parent="1" target="DSpsX9VBpkcXeJtLXAig-12" edge="1">
          <mxGeometry relative="1" as="geometry">
            <mxPoint x="455" y="100" as="sourcePoint" />
            <Array as="points">
              <mxPoint x="455" y="90" />
              <mxPoint x="560" y="90" />
              <mxPoint x="560" y="380" />
            </Array>
          </mxGeometry>
        </mxCell>
        <mxCell id="DSpsX9VBpkcXeJtLXAig-16" style="edgeStyle=orthogonalEdgeStyle;rounded=0;orthogonalLoop=1;jettySize=auto;html=1;endArrow=none;endFill=0;entryX=1;entryY=0.5;entryDx=0;entryDy=0;" parent="1" target="DSpsX9VBpkcXeJtLXAig-15" edge="1">
          <mxGeometry relative="1" as="geometry">
            <mxPoint x="350" y="486.6666666666667" as="targetPoint" />
            <mxPoint x="450" y="100" as="sourcePoint" />
            <Array as="points">
              <mxPoint x="450" y="60" />
              <mxPoint x="600" y="60" />
              <mxPoint x="600" y="470" />
            </Array>
          </mxGeometry>
        </mxCell>
        <mxCell id="DSpsX9VBpkcXeJtLXAig-3" value="Funcionário da locadora" style="shape=umlActor;verticalLabelPosition=bottom;verticalAlign=top;html=1;outlineConnect=0;" parent="1" vertex="1">
          <mxGeometry x="440" y="110" width="30" height="60" as="geometry" />
        </mxCell>
        <mxCell id="DSpsX9VBpkcXeJtLXAig-4" value="Cadastrar/Gerenciar informações do cliente" style="ellipse;whiteSpace=wrap;html=1;" parent="1" vertex="1">
          <mxGeometry x="195" y="40" width="135" height="80" as="geometry" />
        </mxCell>
        <mxCell id="DSpsX9VBpkcXeJtLXAig-6" value="Registrar/gerenciar atributos e categorias dos veículos da frota" style="ellipse;whiteSpace=wrap;html=1;" parent="1" vertex="1">
          <mxGeometry x="195" y="140" width="135" height="80" as="geometry" />
        </mxCell>
        <mxCell id="DSpsX9VBpkcXeJtLXAig-8" value="Alocar carro" style="ellipse;whiteSpace=wrap;html=1;" parent="1" vertex="1">
          <mxGeometry x="195" y="230" width="135" height="80" as="geometry" />
        </mxCell>
        <mxCell id="DSpsX9VBpkcXeJtLXAig-12" value="Solicitar/Registrar consertos e serviços na oficina" style="ellipse;whiteSpace=wrap;html=1;" parent="1" vertex="1">
          <mxGeometry x="195" y="330" width="135" height="80" as="geometry" />
        </mxCell>
        <mxCell id="DSpsX9VBpkcXeJtLXAig-15" value="Analisar/Emitir relatórios do sistema" style="ellipse;whiteSpace=wrap;html=1;" parent="1" vertex="1">
          <mxGeometry x="195" y="430" width="135" height="80" as="geometry" />
        </mxCell>
      </root>
    </mxGraphModel>
  </diagram>
</mxfile>
